<?xml version="1.0" standalone="no"?><!DOCTYPE svg PUBLIC "-//W3C//DTD SVG 1.1//EN" "http://www.w3.org/Graphics/SVG/1.1/DTD/svg11.dtd"><svg t="1569032805811" class="icon" viewBox="0 0 1024 1024" version="1.1" xmlns="http://www.w3.org/2000/svg" p-id="5092" xmlns:xlink="http://www.w3.org/1999/xlink" width="200" height="200"><defs><style type="text/css"></style></defs><path d="M774.4 803.648h-38.4v-51.2h38.4z" fill="#453F3C" p-id="5093"></path><path d="M761.6 790.848h-12.8v-25.6h12.8z" fill="#EAC363" p-id="5094"></path><path d="M755.2 790.848h-6.4v-25.6h6.4z" opacity=".14" p-id="5095"></path><path d="M435.2 150.848c0 14.144 34.368 25.6 76.8 25.6s76.8-11.456 76.8-25.6h12.8v108.8H422.4v-108.8z" fill="#453F3C" p-id="5096"></path><path d="M428.8 176.448c0 14.144 40.768 25.6 83.2 25.6s83.2-11.456 83.2-25.6h12.8v108.8H416v-108.8z" fill="#CCC4C4" p-id="5097"></path><path d="M595.2 176.448c0 14.144-40.768 25.6-83.2 25.6s-83.2-11.456-83.2-25.6h-12.8v6.4h12.8c0 14.144 40.768 25.6 83.2 25.6s83.2-11.456 83.2-25.6h12.8v-6.4z" opacity=".14" p-id="5098"></path><path d="M748.8 195.648l-134.4-44.8h-25.6c6.4 6.4 12.8 70.4-76.8 70.4s-83.2-64-76.8-70.4h-25.6l-134.4 44.8-172.8 172.8 147.2 147.2 25.6-25.6v390.4h473.6v-390.4l25.6 25.6 147.2-147.2z" fill="#453F3C" p-id="5099"></path><path d="M883.2 368.64l-147.2-147.2-121.6-38.4c0 35.328-45.824 64-102.4 64s-102.4-28.672-102.4-64l-121.6 38.4-147.2 147.2 108.8 108.8 51.2-51.2v428.8h422.4v-428.8l51.2 51.2z" fill="#EAC363" p-id="5100"></path><path d="M300.8 451.648h422.4v403.2H300.8z" fill="#F7F7F7" p-id="5101"></path><path d="M300.8 458.048h422.4v6.4H300.8zM300.8 470.848h422.4v6.4H300.8zM300.8 483.648h422.4v6.4H300.8zM300.8 496.448h422.4v6.4H300.8zM300.8 509.248h422.4v6.4H300.8zM300.8 522.048h422.4v6.4H300.8zM300.8 534.848h422.4v6.4H300.8zM300.8 547.648h422.4v6.4H300.8zM300.8 560.448h422.4v6.4H300.8zM300.8 573.248h422.4v6.4H300.8zM300.8 586.048h422.4v6.4H300.8zM300.8 598.848h422.4v6.4H300.8zM300.8 611.648h422.4v6.4H300.8zM300.8 624.448h422.4v6.4H300.8zM300.8 637.248h422.4v6.4H300.8zM300.8 650.048h422.4v6.4H300.8zM300.8 662.848h422.4v6.4H300.8zM300.8 675.648h422.4v6.4H300.8zM300.8 688.448h422.4v6.4H300.8zM300.8 701.248h422.4v6.4H300.8zM300.8 714.048h422.4v6.4H300.8zM300.8 726.848h422.4v6.4H300.8zM300.8 739.648h422.4v6.4H300.8zM300.8 752.448h422.4v6.4H300.8zM300.8 765.248h422.4v6.4H300.8zM300.8 778.048h422.4v6.4H300.8zM300.8 790.848h422.4v6.4H300.8zM300.8 803.648h422.4v6.4H300.8zM300.8 816.448h422.4v6.4H300.8zM300.8 829.248h422.4v25.6H300.8z" fill="#CCC4C4" p-id="5102"></path><path d="M627.2 150.848h12.8v678.4h-12.8z" fill="#FFFFFF" opacity=".24" p-id="5103"></path><path d="M652.8 150.848h6.4v678.4h-6.4z" fill="#FFFFFF" opacity=".24" p-id="5104"></path><path d="M288 234.048l121.6-38.4h204.8l121.6 38.4 140.8 140.992 6.4-6.4-147.2-147.392-121.6-38.4H409.6l-121.6 38.4L140.8 368.64l6.4 6.4 140.8-140.992z" fill="#FFFFFF" opacity=".24" p-id="5105"></path><path d="M512 106.048c63.616 0 115.2 34.368 115.2 76.8s-51.584 76.8-115.2 76.8-115.2-34.368-115.2-76.8 51.584-76.8 115.2-76.8m0-12.8c-71.744 0-128 39.36-128 89.6s56.256 89.6 128 89.6 128-39.36 128-89.6-56.256-89.6-128-89.6z" fill="#453F3C" p-id="5106"></path><path d="M326.4 778.048h51.2v12.8h-51.2zM326.4 803.648h76.8v12.8H326.4zM339.2 714.048h12.8v51.2h-12.8z" fill="#453F3C" p-id="5107"></path><path d="M326.3936 752.4352l32-32 6.3744 6.3808-32 32z" fill="#453F3C" p-id="5108"></path><path d="M326.3936 726.816l6.3808-6.3808 32 32-6.3872 6.3808zM499.2 400.448h25.6v102.4h-25.6z" fill="#453F3C" p-id="5109"></path><path d="M473.6128 474.0096l63.9936-63.9936 12.8 12.8064-63.9872 63.9936z" fill="#453F3C" p-id="5110"></path><path d="M473.664 422.8224l12.8-12.8 63.9936 63.9872-12.8064 12.8z" fill="#453F3C" p-id="5111"></path><path d="M448 374.848v153.6h128v-153.6z m115.2 140.8H460.8v-128h102.4z" fill="#453F3C" p-id="5112"></path><path d="M300.8 829.248h422.4v25.6H300.8z" opacity=".1" p-id="5113"></path></svg>