<?xml version="1.0" standalone="no"?><!DOCTYPE svg PUBLIC "-//W3C//DTD SVG 1.1//EN" "http://www.w3.org/Graphics/SVG/1.1/DTD/svg11.dtd"><svg t="1568965103830" class="icon" viewBox="0 0 1024 1024" version="1.1" xmlns="http://www.w3.org/2000/svg" p-id="5081" xmlns:xlink="http://www.w3.org/1999/xlink" width="200" height="200"><defs><style type="text/css"></style></defs><path d="M862.777 797.006l-7.914-0.079a1941.42 1941.42 0 0 1-20.905-0.346c-4.319-0.101-8.996-0.153-13.943-0.311l-15.558-0.448c-5.393-0.133-10.967-0.354-16.63-0.588l-17.161-0.686c-5.75-0.246-11.5-0.609-17.156-0.904l-16.604-0.923-29.4-2.206-28.586-2.998a0.104 0.104 0 0 1-0.094-0.114 0.109 0.109 0 0 1 0.109-0.093l28.688 0.219 29.376-0.645 16.559-0.685c5.638-0.253 11.358-0.446 17.083-0.756l17.076-0.974c5.63-0.313 11.169-0.629 16.529-1.018l15.449-1.053c4.91-0.319 9.55-0.717 13.832-1.033 8.572-0.639 15.686-1.24 20.662-1.663l7.85-0.683 0.047-0.004a9.012 9.012 0 1 1 0.691 17.991zM891.233 796.467a8.891 8.891 0 0 1-6.268-2.575l-0.07-0.069a9 9 0 0 1 12.639-12.817c3.54 3.49 3.614 9.223 0.124 12.762a8.998 8.998 0 0 1-6.425 2.699zM918.978 795.644a8.893 8.893 0 0 1-6.313-2.619l-0.068-0.068a9 9 0 0 1 12.729-12.729c3.515 3.515 3.549 9.248 0.034 12.763a9.012 9.012 0 0 1-6.382 2.653z" fill="" p-id="5082"></path><path d="M101.735 616.596s-17.106 8.063-17.106 30.196c0 22.134 8.064 45.262 142.869 59.365 134.807 14.068 202.219 22.132 313.879 19.112 111.676-3.02 371.234 0 383.314-6.057 10.758-5.369 18.305-24.311 7.754-68.953-2.557-10.742-11.805-18.601-22.802-19.459-41.109-3.158-157.213-6.76-396.423 21.02-189.947 22.047-411.485-35.224-411.485-35.224z" fill="#FFE1C8" p-id="5083"></path><path d="M581.629 321.832c5.523-38.743 9.043-83.507 23.146-87.537 14.069-4.016 121.886 31.672 195.165 40.25 32.994 3.877 58.729 5.284 71.873 5.765 5.66 0.222 10.293 4.392 11.236 9.985l22.527 134.17s26.149 119.71 24.159 163.975l-2.025 44.266s-111.661-10.072-263.572 7.053c-151.928 17.088-280.712 28.172-413.511 9.024-132.78-19.115-148.892-32.187-148.892-32.187s-5.129-31.21 27.161-53.309c38.244-26.165 158.98-33.199 215.309-54.337 56.327-21.105 190.154-87.503 213.282-116.688 23.128-29.185 20.11-42.258 24.142-70.43z" fill="#FFE1C8" p-id="5084"></path><path d="M460.892 521.715s53.668 3.345 73.776-18.788c20.125-22.15 26.836-38.243 50.975-52.313 24.158-14.087 56.346-34.211 64.393-52.331l8.064-18.084 17.414-115.365s-46.274-17.434-61.699 31.519c-6.021 19.095-6.021 66.725-16.093 73.775-29.321 20.54-75.44 51.319-160.953 96.579l24.123 55.008z" fill="#F4B0BF" p-id="5085"></path><path d="M905.576 432.496c13.538-12.027-12.078-71.428-12.078-71.428S643 267.511 620.867 273.55c0 0-11.066 49.293-11.066 72.438 0 23.128 86.199 57.408 105.895 66.433 60.396 27.659 49.414 58.198 49.414 58.198s92.838 4.136 140.466-38.123zM753.443 628.674s23.024-69.092 43.596-89.664c20.555-20.555 116.809-50.17 116.809-50.17S925.359 590 923.73 607.296l-1.664 17.261-168.623 4.117z" fill="#F4B0BF" p-id="5086"></path><path d="M755.796 629.939l-7.59-2.531c0.953-2.857 23.582-70.228 44.561-91.226 21.019-21.017 114.492-49.944 118.461-51.166l2.354 7.646c-0.953 0.293-95.534 29.555-115.156 49.175-19.659 19.678-42.404 87.421-42.63 88.102z" fill="" p-id="5087"></path><path d="M733.173 634.022l-7.467-2.873c1.365-3.545 33.659-87.06 54.573-107.976 21.023-21.006 124.334-54.923 128.722-56.356l2.484 7.604c-1.057 0.346-105.87 34.747-125.551 54.411-19.72 19.723-52.433 104.339-52.761 105.19z" fill="" p-id="5088"></path><path d="M120.85 574.695l63.738 2.009 70.415 6.708 36.889 10.056 23.47 21.462 10.741 4.033 10.053-6.726 4.685-9.368 0.669-12.08-5.354-13.417 22.133 14.755 34.213 36.891 26.818 27.485-128.785-2.007-142.183-31.52-40.235-14.085z" fill="#F4B0BF" p-id="5089"></path><path d="M323.357 621.879c-8.191 0-14.306-6.591-20.283-13.033-6.275-6.765-13.389-14.432-24.364-17.573-27.404-7.81-154.741-13.859-156.024-13.919a4.002 4.002 0 0 1 0.375-7.993c5.276 0.248 129.554 6.156 157.847 14.219 13.125 3.757 21.391 12.666 28.032 19.824 9.278 10.001 13.419 13.787 22.841 6.935 16.459-11.952-3.709-40.399-3.914-40.686a3.999 3.999 0 1 1 6.494-4.67c1.03 1.431 24.951 35.25 2.123 51.827-4.968 3.613-9.277 5.069-13.127 5.069z" fill="" p-id="5090"></path><path d="M426.697 659.867s-102.07-94.812-108.658-108.658c-10.055-21.121 6.039-34.883 6.039-34.883l94.572-39.564s25.152-9.059 34.194 18.117c6.639 19.939 4.03 30.181 12.079 52.297 11.685 32.154 64.392 104.645 64.392 104.645l-102.618 8.046z" fill="#F4B0BF" p-id="5091"></path><path d="M526.871 656.328c-2.198-3.067-53.97-75.486-65.707-107.786-4.422-12.152-5.729-20.848-6.993-29.258-1.094-7.275-2.127-14.147-5.121-23.142-2.422-7.277-6.305-12.257-11.543-14.8-8.325-4.04-17.41-0.851-17.501-0.817l-2.711-7.527c0.499-0.179 12.384-4.348 23.705 1.148 7.251 3.52 12.513 10.07 15.641 19.47 3.212 9.648 4.345 17.188 5.441 24.479 1.261 8.39 2.452 16.313 6.601 27.713 11.366 31.277 64.159 105.118 64.69 105.86l-6.502 4.66zM418.407 663.6c-9.938-9.846-97.285-96.601-103.98-110.672-8.995-18.896 0.68-34.192 7.052-39.642l5.199 6.08-2.6-3.04 2.613 3.028c-0.559 0.487-13.603 12.15-5.041 30.135 4.613 9.697 63.759 70.155 102.388 108.427l-5.631 5.684zM364.309 547.162a4.003 4.003 0 0 1-3.878-3.031c-0.066-0.269-6.745-26.993-9.397-38.282a4 4 0 1 1 7.788-1.83c2.641 11.235 9.305 37.904 9.372 38.173a4.002 4.002 0 0 1-3.885 4.97zM397.851 531.068a4 4 0 0 1-3.94-3.343c-2.405-14.429-7.864-30.907-12.157-32.442a4 4 0 0 1 2.693-7.533c10.778 3.854 16.009 30.566 17.354 38.662a3.999 3.999 0 0 1-3.95 4.656z" fill="" p-id="5092"></path><path d="M426.696 517.993a4.002 4.002 0 0 1-3.815-2.803c-0.371-1.183-9.123-29.069-11.141-37.498a4.001 4.001 0 0 1 7.781-1.861c1.952 8.161 10.901 36.676 10.992 36.963a4 4 0 0 1-3.817 5.199zM473.979 487.813a4 4 0 0 1-3.877-3.03c-3.01-12.023-6.999-26.243-8.296-28.643a4 4 0 0 1 5.945-5.336c0.763 0.763 2.791 2.79 10.11 32.037a4 4 0 0 1-3.882 4.972zM504.162 472.733a4.001 4.001 0 0 1-3.768-2.658c-0.345-0.967-8.454-23.737-9.824-29.233a4 4 0 1 1 7.762-1.936c1.021 4.097 6.725 20.423 9.598 28.483a3.999 3.999 0 0 1-3.768 5.344zM533.331 459.968a4 4 0 0 1-3.74-2.581c-0.305-0.802-7.494-19.792-11.513-34.564a3.999 3.999 0 0 1 2.81-4.909 3.993 3.993 0 0 1 4.909 2.81c3.915 14.393 11.2 33.632 11.272 33.824a4 4 0 0 1-3.738 5.42zM611.811 405.646a4 4 0 0 1-3.658-2.378c-5.98-13.471-18.074-32.455-26.233-32.482l-0.016-0.001c-3.806 0-6.827 4.914-8.692 9.039a4 4 0 0 1-7.289-3.297c4.123-9.118 9.499-13.742 15.978-13.742l0.05 0.001c16.213 0.06 30.764 31.031 33.517 37.239a4 4 0 0 1-3.657 5.621zM560.168 439.86c-1.368 0-2.7-0.702-3.447-1.965l-17.449-29.51a4.001 4.001 0 0 1 6.886-4.072l17.449 29.51a4.001 4.001 0 0 1-3.439 6.037zM586.314 422.409a3.992 3.992 0 0 1-3.165-1.55l-20.777-26.817a4 4 0 0 1 6.324-4.9l20.777 26.817a4 4 0 0 1-3.159 6.45z" fill="" p-id="5093"></path><path d="M468.763 525.912c-4.611 0-7.618-0.174-8.12-0.205l0.497-7.984c0.514 0.028 51.993 2.96 70.567-17.485 6.196-6.819 11.028-12.963 15.7-18.904 10.18-12.942 18.97-24.12 36.221-34.175 14.883-8.678 54.417-31.73 62.752-50.498l7.83-17.56 14.952-113.265c-5.001-2.176-17.149-6.288-28.671-1.147-11.771 5.255-20.107 18.68-24.776 39.901-2.604 11.841-3.031 19.592-3.738 32.435-0.44 8.009-0.988 17.977-2.224 32.098-0.399 4.771-4.81 5.388-7.729 5.797-7.077 0.992-23.65 3.313-56.565 34.342l-5.488-5.822c34.77-32.774 53.111-35.345 60.944-36.442 0.322-0.045 0.676-0.095 1.005-0.145 1.129-13.172 1.648-22.619 2.069-30.267 0.729-13.246 1.169-21.241 3.913-33.714 5.253-23.882 15.146-39.197 29.405-45.521 18.652-8.271 37.396 2.224 38.184 2.674l2.332 1.333-15.834 119.941-8.301 18.614c-8.314 18.723-39.655 38.778-66.031 54.157-15.935 9.288-23.89 19.403-33.961 32.209-4.538 5.77-9.681 12.309-16.067 19.338-16.481 18.139-52.62 20.295-68.866 20.295z" fill="" p-id="5094"></path><path d="M905.576 432.496l-12.078-71.428s-183.996-64.769-250.43-85.494c-11.684-3.653-23.916 3.26-26.971 15.098-4.635 17.929-7.31 41.539-7.31 55.316 0 23.128 80.022 55.349 100.269 63.035 67.085 25.498 53.65 57.684 53.65 57.684" fill="#F4B0BF" p-id="5095"></path><path d="M766.398 468.248l-7.383-3.082c0.09-0.231 2.537-6.705-1.581-15.999-4.248-9.587-16.336-23.686-49.799-36.404-7.582-2.879-34.19-13.258-58.174-25.93-30.062-15.882-44.674-29.243-44.674-40.845 0-13.69 2.555-37.431 7.437-56.317 1.765-6.836 6.115-12.48 12.253-15.895 6.091-3.388 13.119-4.104 19.784-2.02 65.74 20.509 248.724 84.891 250.564 85.538l2.223 0.783 12.472 73.751-7.889 1.334-11.685-69.104c-21.137-7.428-186.401-65.428-248.07-84.667-4.557-1.424-9.354-0.938-13.511 1.375-4.203 2.338-7.185 6.21-8.396 10.903-4.665 18.048-7.183 41.455-7.183 54.317 0 15.258 50.639 41.433 97.688 59.296 29.189 11.094 47.508 24.902 54.446 41.04 5.334 12.401 1.639 21.542 1.478 21.926z" fill="" p-id="5096"></path><path d="M782.573 474.529c-22.044 0-43.719-3.547-64.114-10.776-76.038-26.899-90.669-39.835-91.255-40.372l5.41-5.895-2.705 2.947 2.669-2.979c0.143 0.124 15.073 12.762 88.552 38.757 57.421 20.354 125.55 10.238 182.248-27.058l4.396 6.684c-38.719 25.472-82.646 38.692-125.201 38.692z" fill="" p-id="5097"></path><path d="M779.222 491.146c-20.983 0-41.261-3.448-60.762-10.355-75.735-26.81-103.739-45.051-104.895-45.814l4.409-6.676c0.276 0.183 28.555 18.541 103.156 44.949 54.705 19.378 116.103 10.222 182.48-27.218l3.93 6.969c-45.045 25.404-87.986 38.145-128.318 38.145zM570.902 375.469a3.998 3.998 0 0 1-3.575-5.788c15.523-31.087 61.504-36.837 63.453-37.066a3.998 3.998 0 0 1 4.44 3.505 4 4 0 0 1-3.502 4.44c-0.436 0.052-43.651 5.493-57.235 32.695a4 4 0 0 1-3.581 2.214z" fill="" p-id="5098"></path><path d="M611.809 606.951c0 7.414-6.006 13.419-13.418 13.419s-13.416-6.005-13.416-13.419c0-7.41 6.004-13.415 13.416-13.415s13.418 6.005 13.418 13.415z" fill="#FD825C" p-id="5099"></path><path d="M598.391 624.37c-9.604 0-17.416-7.814-17.416-17.419 0-9.603 7.813-17.415 17.416-17.415 9.604 0 17.418 7.813 17.418 17.415 0 9.605-7.814 17.419-17.418 17.419z m0-26.834c-5.192 0-9.416 4.224-9.416 9.415 0 5.193 4.224 9.419 9.416 9.419 5.193 0 9.418-4.226 9.418-9.419 0-5.191-4.225-9.415-9.418-9.415z" fill="" p-id="5100"></path><path d="M673.299 599.815c0 7.412-6.004 13.415-13.417 13.415-7.411 0-13.415-6.003-13.415-13.415 0-7.413 6.004-13.417 13.415-13.417 7.413 0 13.417 6.004 13.417 13.417z" fill="#FD825C" p-id="5101"></path><path d="M659.882 617.23c-9.603 0-17.415-7.813-17.415-17.415 0-9.604 7.813-17.417 17.415-17.417 9.604 0 17.417 7.813 17.417 17.417 0 9.603-7.814 17.415-17.417 17.415z m0-26.832c-5.191 0-9.415 4.225-9.415 9.417 0 5.191 4.224 9.415 9.415 9.415 5.192 0 9.417-4.224 9.417-9.415 0-5.192-4.225-9.417-9.417-9.417z" fill="" p-id="5102"></path><path d="M578.973 321.454c2.432-14.896 4.514-29.896 7.041-44.877 0.637-3.745 1.293-7.492 2.058-11.228 0.737-3.74 1.554-7.475 2.55-11.186 0.981-3.716 2.111-7.421 3.707-11.04 0.794-1.811 1.71-3.603 2.879-5.319 1.188-1.695 2.632-3.371 4.652-4.586a11.105 11.105 0 0 1 1.603-0.78l0.429-0.15 0.215-0.073a3.53 3.53 0 0 1 0.309-0.083c0.243-0.054 0.428-0.112 0.72-0.164l0.952-0.136c0.299-0.032 0.545-0.041 0.82-0.062 0.547-0.047 1.042-0.026 1.566-0.042 2.037 0.021 3.981 0.198 5.911 0.418 3.851 0.454 7.622 1.089 11.375 1.776 7.503 1.383 14.921 2.987 22.327 4.62 14.803 3.289 29.535 6.747 44.279 10.083 14.741 3.341 29.488 6.587 44.266 9.554 14.772 2.972 29.59 5.634 44.414 7.734 7.418 1.046 14.813 1.933 22.236 2.578 3.761 0.327 7.553 0.699 11.287 0.989 3.74 0.282 7.461 0.602 11.21 0.852 14.987 1.037 30.009 1.799 44.952 2.06l0.699 0.013 0.351 0.007 0.175 0.004c0.223 0.011-0.25-0.021 0.543 0.026l0.708 0.043c0.136 0.011 0.194 0.008 0.395 0.029l0.706 0.092c0.459 0.067 0.963 0.144 1.381 0.232l1.156 0.284c0.766 0.204 1.518 0.473 2.256 0.766 1.477 0.6 2.863 1.398 4.162 2.319 1.271 0.954 2.457 2.028 3.479 3.247 2.04 2.429 3.53 5.348 4.233 8.426l0.244 1.115 0.133 0.696 0.268 1.394 0.535 2.787 4.274 22.294 8.55 44.589 8.582 44.583 2.152 11.145 1.076 5.572 1.23 4.951a1716.05 1716.05 0 0 1 5.286 22.245c3.415 14.848 6.686 29.736 9.741 44.713 3.025 14.988 5.862 30.041 8.197 45.343 1.166 7.655 2.217 15.364 3.027 23.233 0.786 7.896 1.409 15.846 1.229 24.58-0.045 2.327-0.125 4.021-0.198 5.958l-0.212 5.672c-0.156 3.813-0.242 7.479-0.354 11.195-0.11 3.7-0.17 7.416-0.217 11.061 0 1.782-0.044 3.677-0.006 5.354l0.016 1.289 0.008 0.645 0.022 0.558 0.044 1.106c0.008 0.147 0.021 0.16 0.028 0.247l0.011 0.104c0.006 0.107-0.002-0.094-0.024-0.352a11.1 11.1 0 0 0-0.077-0.657v-0.002l-18.206 19.339a73.522 73.522 0 0 0-2.995-0.629l-3.113-0.6c-2.1-0.37-4.185-0.753-6.304-1.095-4.222-0.715-8.464-1.317-12.723-1.927-8.511-1.188-17.067-2.173-25.642-3.014-17.15-1.655-34.376-2.819-51.623-3.392-17.248-0.646-34.521-0.87-51.803-0.814-8.641 0.04-17.276 0.275-25.919 0.456-4.319 0.116-8.633 0.36-12.95 0.534-4.318 0.189-8.637 0.375-12.951 0.609-8.625 0.537-17.246 1.16-25.867 1.809-8.615 0.695-17.212 1.602-25.82 2.4l-51.699 5.447-51.754 5.221-25.901 2.467-25.925 2.307a2550.58 2550.58 0 0 1-25.953 2.092c-8.654 0.674-17.316 1.293-25.986 1.844l-13.008 0.794-13.018 0.704c-8.684 0.425-17.373 0.762-26.07 1.059a1184.8 1184.8 0 0 1-52.256 0.533c-4.36-0.056-8.722-0.119-13.082-0.259l-6.545-0.159-6.544-0.241-6.546-0.249-6.543-0.34c-4.365-0.21-8.729-0.471-13.092-0.76-17.452-1.141-34.902-2.764-52.313-4.936-17.285-2.153-34.505-4.428-51.774-6.752-17.26-2.376-34.536-4.771-51.894-7.511-8.677-1.403-17.379-2.85-26.191-4.529-4.416-0.862-8.847-1.78-13.438-2.857-2.31-0.556-4.624-1.134-7.151-1.901a66.894 66.894 0 0 1-4.089-1.379l-1.193-0.475c-0.474-0.209-0.905-0.396-1.409-0.636-0.607-0.31-1.052-0.512-1.924-1.039l-0.614-0.381a26.259 26.259 0 0 1-0.876-0.607c-0.194-0.133-0.75-0.563-1.249-1.001-0.751-0.968-0.433 0.319-3.628-4.43l-1.353-2.012-0.646-3.639-0.002-0.012-0.113-0.83-0.059-0.545-0.084-0.972a55.472 55.472 0 0 1-0.134-5.064 69.57 69.57 0 0 1 0.403-6.295c0.479-4.114 1.264-8.149 2.422-12.075 2.283-7.854 5.932-15.278 10.585-21.829 4.667-6.541 10.276-12.207 16.337-16.869l2.285-1.728 2.334-1.613 1.17-0.8 0.4-0.269 0.127-0.078 0.251-0.155 0.503-0.312 1.015-0.627 1.401-0.819 1.396-0.799 1.262-0.67a59.689 59.689 0 0 1 2.518-1.277 64.447 64.447 0 0 1 2.502-1.182 73.97 73.97 0 0 1 2.488-1.1c6.619-2.83 13.105-4.943 19.553-6.833 6.441-1.858 12.836-3.444 19.201-4.869 12.732-2.849 25.365-5.117 37.951-7.221 25.15-4.215 50.143-7.695 74.768-11.959 12.297-2.142 24.51-4.468 36.392-7.376 5.933-1.46 11.785-3.068 17.409-4.951l2.113-0.72 2.228-0.785 4.325-1.567a539.318 539.318 0 0 0 8.719-3.291c11.621-4.49 23.2-9.3 34.718-14.263 11.515-4.977 22.963-10.145 34.353-15.443 22.766-10.619 45.32-21.75 67.357-33.722 11.01-5.996 21.896-12.207 32.437-18.848 5.257-3.332 10.433-6.771 15.378-10.416 2.463-1.828 4.871-3.707 7.146-5.664 2.261-1.951 4.435-4.006 6.177-6.102 7.899-9.559 14.849-19.677 18.442-31.148 1.839-5.715 2.836-11.77 3.69-17.972 0.839-6.202 1.601-12.532 2.649-18.825z m5.312 0.756c-0.754 6.204-1.227 12.441-1.799 18.779-0.59 6.326-1.348 12.832-3.097 19.239-1.712 6.407-4.362 12.575-7.568 18.296a124.334 124.334 0 0 1-5.128 8.351 190.154 190.154 0 0 1-5.625 7.877c-2.176 2.86-4.525 5.243-6.936 7.529-2.414 2.27-4.897 4.387-7.416 6.434-5.045 4.075-10.234 7.857-15.485 11.521-10.518 7.293-21.292 14.084-32.181 20.654-21.791 13.113-44.035 25.34-66.546 37.077a1490.066 1490.066 0 0 1-34.02 17.153c-11.423 5.582-22.927 11.019-34.63 16.197a571.35 571.35 0 0 1-8.832 3.823l-4.494 1.875-2.197 0.896-2.328 0.919c-6.244 2.428-12.491 4.461-18.736 6.32-12.492 3.696-24.98 6.688-37.441 9.479-24.914 5.552-49.77 10.211-74.207 15.546-12.203 2.685-24.31 5.514-36.075 8.788-5.882 1.635-11.666 3.396-17.267 5.327-5.576 1.945-11.012 4.06-15.887 6.461-0.621 0.293-1.21 0.603-1.799 0.91-0.6 0.302-1.176 0.614-1.733 0.933-0.573 0.312-1.13 0.628-1.656 0.954l-0.806 0.48-0.637 0.417-0.626 0.399-0.968 0.669-0.486 0.337-0.244 0.168-0.121 0.084c0.475-0.315 0.078-0.045 0.159-0.097l-0.753 0.581-1.505 1.156-1.427 1.211c-3.779 3.237-6.924 6.857-9.386 10.737-2.43 3.897-4.169 8.078-5.162 12.419-0.509 2.164-0.788 4.375-0.917 6.541a35.922 35.922 0 0 0-0.012 3.161c0.02 0.506 0.059 0.995 0.104 1.434 0.022 0.219 0.05 0.429 0.075 0.595 0.014 0.077 0.026 0.176 0.037 0.205 0.004 0.012 0.012 0.071 0.012 0.043v-0.028l-0.029-0.216-0.002-0.006-1.998-5.649c-3.112-4.642-2.697-3.259-3.345-4.141-0.396-0.351-0.851-0.69-0.933-0.748a9.505 9.505 0 0 0-0.545-0.371l-0.271-0.164c-0.418-0.23-0.379-0.189-0.513-0.235-0.022 0.007 0.036 0.053 0.047 0.084l0.29 0.188c0.479 0.289 1.187 0.641 1.959 0.991 1.545 0.709 3.367 1.428 5.203 2.126 3.707 1.409 7.652 2.716 11.635 3.98 7.996 2.525 16.201 4.88 24.473 7.076 16.548 4.436 33.324 8.485 50.162 12.289a2215.826 2215.826 0 0 0 50.691 10.823 731.686 731.686 0 0 0 50.785 8.273l6.393 0.813 6.406 0.714 6.41 0.699 6.42 0.611 6.425 0.604 6.433 0.521c4.289 0.359 8.584 0.635 12.882 0.906 17.188 1.113 34.429 1.679 51.687 1.869 8.629 0.112 17.262 0.06 25.898-0.049 8.635-0.133 17.273-0.294 25.91-0.618 8.636-0.32 17.271-0.708 25.908-1.151 8.633-0.48 17.263-1.048 25.893-1.646 8.63-0.594 17.252-1.318 25.873-2.053a1810.48 1810.48 0 0 0 25.854-2.388c8.612-0.859 17.226-1.722 25.833-2.654l25.815-2.882 51.633-5.972 25.889-2.914 12.961-1.308 12.959-1.373c8.65-0.78 17.297-1.676 25.949-2.524l25.983-2.396c17.337-1.479 34.699-2.979 52.103-4.092 17.401-1.22 34.836-2.273 52.333-3.33l26.317-1.542 6.607-0.393 6.633-0.357 13.528-0.711-18.206 19.339v-0.003a24.38 24.38 0 0 1-0.107-1.011c-0.032-0.375-0.046-0.702-0.047-0.705l-0.016-0.605-0.018-1.17 0.034-1.73 0.02-0.861 0.035-0.773 0.071-1.547c0.082-2.104 0.238-3.989 0.356-5.986 0.279-3.914 0.567-7.755 0.907-11.606l2.045-22.476c0.49-6.385 0.367-13.579 0.016-20.763-0.36-7.216-0.967-14.55-1.694-21.904-1.459-14.72-3.45-29.548-5.64-44.364a1478.526 1478.526 0 0 0-7.338-44.441 1689.046 1689.046 0 0 0-4.133-22.155l-0.539-2.755-0.27-1.367-0.135-0.68-0.035-0.174c-0.259-1.324-0.086-0.469-0.15-0.809l-0.051-0.352-0.803-5.618-1.605-11.236-6.449-44.941-6.481-44.936-3.241-22.468-0.754-5.188c-0.074-0.626-0.331-1.186-0.668-1.688-0.171-0.251-0.389-0.46-0.602-0.675-0.238-0.18-0.477-0.366-0.747-0.5-0.136-0.061-0.271-0.133-0.415-0.18a1.731 1.731 0 0 1-0.215-0.078c-0.043-0.014-0.009-0.002-0.014-0.021l0.006-0.028c-0.033-0.012-0.212-0.024-0.311-0.037l-0.706-0.074c0.675 0.038 0.085 0.004 0.188 0.01l-0.18-0.012-0.357-0.021-0.718-0.045c-15.294-0.934-30.462-2.368-45.607-4.08-3.786-0.419-7.587-0.912-11.376-1.365-3.793-0.461-7.512-0.99-11.271-1.483-7.616-0.998-15.207-2.245-22.719-3.642-15.039-2.789-29.883-6.177-44.65-9.756-14.763-3.596-29.431-7.457-44.057-11.404-14.627-3.942-29.207-7.998-43.804-11.87-7.298-1.925-14.603-3.818-21.922-5.478-3.658-0.826-7.324-1.595-10.968-2.176-1.818-0.284-3.641-0.52-5.385-0.607-0.421-0.003-0.873-0.041-1.27-0.019l-0.596 0.018a6.87 6.87 0 0 1-0.457 0.032c-0.176 0.017-0.448 0.084-0.668 0.123-0.164 0.039 0.025-0.016-0.034 0.005l-0.121 0.039-0.245 0.074a6.759 6.759 0 0 0-0.96 0.427c-1.268 0.691-2.431 1.877-3.446 3.238-1.01 1.379-1.889 2.934-2.659 4.565-1.528 3.276-2.695 6.807-3.716 10.381-1.979 7.183-3.327 14.598-4.467 22.038-2.239 14.906-3.586 29.98-5.433 45.04z" fill="" p-id="5103"></path><path d="M553.639 654.04c-0.282-0.327-28.456-33.038-47.094-64.831-18.59-31.711-32.496-64.938-32.635-65.27l7.385-3.077c0.136 0.327 13.845 33.073 32.152 64.301 18.271 31.169 45.966 63.324 46.244 63.645l-6.052 5.232z" fill="" p-id="5104"></path><path d="M583.929 323.636a3.999 3.999 0 0 1-2.77-6.886c0.608-0.584 15.296-14.292 49.454-14.292a4 4 0 0 1 0 8c-30.977 0-43.791 11.945-43.917 12.065a3.983 3.983 0 0 1-2.767 1.113z" fill="" p-id="5105"></path><path d="M496.314 742.904c-81.351 0.001-144.19-6.59-245.782-17.243-8.016-0.84-16.272-1.706-24.799-2.596-64.07-6.703-104.861-15.811-128.375-28.662-26.351-14.402-29.729-33.01-29.729-47.611 0-25.981 16.883-40.871 26.858-45.573l14.496 30.754s0.142-0.057 0.388-0.191c-1.293 0.702-7.742 4.726-7.742 15.011 0 6.501 0 11.198 12.036 17.776 18.898 10.329 57.792 18.633 115.602 24.682 8.528 0.89 16.79 1.756 24.811 2.597 118.233 12.396 183.36 19.225 286.84 16.429 41.84-1.132 105.477-0.932 167.02-0.733 77.877 0.248 182.975 0.58 206.536-2.959 2.304-4.219 5.205-12.606 6.823-25.074 1.444-11.124 1.397-22.735-0.007-30.904a21.33 21.33 0 0 1-4.51-2.879l21.861-26.041c-1.51-1.267-2.792-1.808-2.934-1.865 0.219 0.089 0.456 0.172 0.702 0.263 3.48 1.276 12.728 4.669 16.033 14.973 7.924 24.623 4.033 78.416-15.73 98.179-8.898 8.9-18.99 10.975-228.883 10.309-61.289-0.196-124.666-0.396-165.992 0.722-15.97 0.427-31.047 0.636-45.523 0.636z" fill="" p-id="5106"></path></svg>