<?xml version="1.0" standalone="no"?><!DOCTYPE svg PUBLIC "-//W3C//DTD SVG 1.1//EN" "http://www.w3.org/Graphics/SVG/1.1/DTD/svg11.dtd"><svg t="1569040902523" class="icon" viewBox="0 0 1024 1024" version="1.1" xmlns="http://www.w3.org/2000/svg" p-id="6270" xmlns:xlink="http://www.w3.org/1999/xlink" width="200" height="200"><defs><style type="text/css"></style></defs><path d="M512 663.466667c-85.845333 0-155.648-69.802667-155.648-155.648S426.154667 352.170667 512 352.170667s155.648 69.802667 155.648 155.648S597.845333 663.466667 512 663.466667z" fill="#64EDAC" p-id="6271"></path><path d="M775.082667 507.818667c0-81.749333-37.546667-154.965333-96.256-203.264l-43.776-156.672c-3.328-29.696-31.829333-52.992-66.389334-52.992H455.424c-30.037333 0-62.037333 18.432-66.304 46.421333l-44.202667 163.413333c-58.624 48.298667-96.085333 121.429333-96.085333 203.093334 0 81.749333 37.461333 154.965333 96.170667 203.264l44.117333 170.922666c4.181333 25.685333 33.365333 47.018667 66.218667 47.018667h113.237333c34.730667 0 63.317333-23.893333 66.474667-54.272l43.690666-163.584c58.794667-48.213333 96.341333-121.514667 96.341334-203.349333zM453.888 163.328c0.426667-0.085333 0.938667-0.085333 1.450667-0.085333h113.066666l26.624 95.061333A262.084267 262.084267 0 0 0 512 244.821333c-29.354667 0-57.514667 4.864-83.882667 13.738667l25.770667-95.232zM317.184 507.818667c0-107.434667 87.381333-194.816 194.816-194.816s194.816 87.381333 194.816 194.816S619.434667 702.634667 512 702.634667 317.184 615.253333 317.184 507.818667z m251.050667 352.682666l-112.810667 0.341334c-0.426667 0-0.853333 0-1.194667-0.085334L427.434667 756.906667c26.538667 9.045333 55.04 13.994667 84.565333 13.994666 29.269333 0 57.429333-4.864 83.797333-13.738666l-27.562666 103.338666z" fill="#333C4F" p-id="6272"></path><path d="M605.696 475.221333h-61.098667v-61.098666c0-17.92-14.677333-32.597333-32.597333-32.597334s-32.597333 14.677333-32.597333 32.597334v93.696c0 17.92 14.677333 32.597333 32.597333 32.597333h93.696c17.92 0 32.597333-14.677333 32.597333-32.597333s-14.677333-32.597333-32.597333-32.597334z" fill="#333C4F" p-id="6273"></path></svg>